{
	"asset":{
		"generator":"Khronos glTF Blender I/O v4.3.47",
		"version":"2.0"
	},
	"scene":0,
	"scenes":[
		{
			"name":"Scene",
			"nodes":[
				0,
				1,
				2,
				3
			]
		}
	],
	"nodes":[
		{
			"mesh":0,
			"name":"Cube",
			"translation":[
				0,
				-1.1854057312011719,
				0
			]
		},
		{
			"mesh":1,
			"name":"Cube.001",
			"rotation":[
				-0.3684418201446533,
				0.1768065243959427,
				0.07159581780433655,
				0.9098703861236572
			],
			"scale":[
				0.2784365117549896,
				0.27843648195266724,
				0.2784365117549896
			],
			"translation":[
				0,
				1.445164680480957,
				0
			]
		},
		{
			"mesh":2,
			"name":"Cube.002",
			"rotation":[
				0.21702145040035248,
				-0.8916143178939819,
				-0.23680034279823303,
				0.31914135813713074
			],
			"scale":[
				0.2990463972091675,
				0.2990463972091675,
				0.2990463674068451
			],
			"translation":[
				0,
				1.445164680480957,
				0
			]
		},
		{
			"mesh":3,
			"name":"Cube.003",
			"rotation":[
				0.15249286592006683,
				0.6641815900802612,
				-0.23198480904102325,
				0.694112241268158
			],
			"scale":[
				0.3114439845085144,
				0.31144389510154724,
				0.311443954706192
			],
			"translation":[
				0,
				1.445164680480957,
				0
			]
		}
	],
	"materials":[
		{
			"doubleSided":true,
			"name":"Orange",
			"pbrMetallicRoughness":{
				"baseColorFactor":[
					0.8004403114318848,
					0.3103119730949402,
					0.00815100409090519,
					1
				],
				"metallicFactor":0,
				"roughnessFactor":0.5
			}
		},
		{
			"doubleSided":true,
			"name":"Green",
			"pbrMetallicRoughness":{
				"baseColorFactor":[
					0,
					0.3663118779659271,
					0.05487605184316635,
					1
				],
				"metallicFactor":0,
				"roughnessFactor":0.5
			}
		}
	],
	"meshes":[
		{
			"name":"Cube",
			"primitives":[
				{
					"attributes":{
						"POSITION":0,
						"NORMAL":1,
						"TEXCOORD_0":2,
						"TANGENT":3
					},
					"indices":4,
					"material":0
				}
			]
		},
		{
			"name":"Cube.001",
			"primitives":[
				{
					"attributes":{
						"POSITION":5,
						"NORMAL":6,
						"TEXCOORD_0":7,
						"TANGENT":8
					},
					"indices":9,
					"material":1
				}
			]
		},
		{
			"name":"Cube.001",
			"primitives":[
				{
					"attributes":{
						"POSITION":10,
						"NORMAL":11,
						"TEXCOORD_0":12,
						"TANGENT":13
					},
					"indices":9,
					"material":1
				}
			]
		},
		{
			"name":"Cube.001",
			"primitives":[
				{
					"attributes":{
						"POSITION":14,
						"NORMAL":15,
						"TEXCOORD_0":16,
						"TANGENT":17
					},
					"indices":9,
					"material":1
				}
			]
		}
	],
	"accessors":[
		{
			"bufferView":0,
			"componentType":5126,
			"count":2825,
			"max":[
				0.8694816827774048,
				2.697646141052246,
				0.86948162317276
			],
			"min":[
				-0.86948162317276,
				-0.4801844358444214,
				-0.8694816827774048
			],
			"type":"VEC3"
		},
		{
			"bufferView":1,
			"componentType":5126,
			"count":2825,
			"type":"VEC3"
		},
		{
			"bufferView":2,
			"componentType":5126,
			"count":2825,
			"type":"VEC2"
		},
		{
			"bufferView":3,
			"componentType":5126,
			"count":2825,
			"type":"VEC4"
		},
		{
			"bufferView":4,
			"componentType":5123,
			"count":14592,
			"type":"SCALAR"
		},
		{
			"bufferView":5,
			"componentType":5126,
			"count":705,
			"max":[
				1.0001572370529175,
				2.4233341217041016,
				1.0001572370529175
			],
			"min":[
				-1.0001572370529175,
				-0.7751251459121704,
				-1.0001572370529175
			],
			"type":"VEC3"
		},
		{
			"bufferView":6,
			"componentType":5126,
			"count":705,
			"type":"VEC3"
		},
		{
			"bufferView":7,
			"componentType":5126,
			"count":705,
			"type":"VEC2"
		},
		{
			"bufferView":8,
			"componentType":5126,
			"count":705,
			"type":"VEC4"
		},
		{
			"bufferView":9,
			"componentType":5123,
			"count":3840,
			"type":"SCALAR"
		},
		{
			"bufferView":10,
			"componentType":5126,
			"count":705,
			"max":[
				1.0001572370529175,
				2.4233341217041016,
				1.0001572370529175
			],
			"min":[
				-1.0001572370529175,
				-0.7751251459121704,
				-1.0001572370529175
			],
			"type":"VEC3"
		},
		{
			"bufferView":11,
			"componentType":5126,
			"count":705,
			"type":"VEC3"
		},
		{
			"bufferView":12,
			"componentType":5126,
			"count":705,
			"type":"VEC2"
		},
		{
			"bufferView":13,
			"componentType":5126,
			"count":705,
			"type":"VEC4"
		},
		{
			"bufferView":14,
			"componentType":5126,
			"count":705,
			"max":[
				1.0001572370529175,
				2.4233341217041016,
				1.0001572370529175
			],
			"min":[
				-1.0001572370529175,
				-0.7751251459121704,
				-1.0001572370529175
			],
			"type":"VEC3"
		},
		{
			"bufferView":15,
			"componentType":5126,
			"count":705,
			"type":"VEC3"
		},
		{
			"bufferView":16,
			"componentType":5126,
			"count":705,
			"type":"VEC2"
		},
		{
			"bufferView":17,
			"componentType":5126,
			"count":705,
			"type":"VEC4"
		}
	],
	"bufferViews":[
		{
			"buffer":0,
			"byteLength":33900,
			"byteOffset":0,
			"target":34962
		},
		{
			"buffer":0,
			"byteLength":33900,
			"byteOffset":33900,
			"target":34962
		},
		{
			"buffer":0,
			"byteLength":22600,
			"byteOffset":67800,
			"target":34962
		},
		{
			"buffer":0,
			"byteLength":45200,
			"byteOffset":90400,
			"target":34962
		},
		{
			"buffer":0,
			"byteLength":29184,
			"byteOffset":135600,
			"target":34963
		},
		{
			"buffer":0,
			"byteLength":8460,
			"byteOffset":164784,
			"target":34962
		},
		{
			"buffer":0,
			"byteLength":8460,
			"byteOffset":173244,
			"target":34962
		},
		{
			"buffer":0,
			"byteLength":5640,
			"byteOffset":181704,
			"target":34962
		},
		{
			"buffer":0,
			"byteLength":11280,
			"byteOffset":187344,
			"target":34962
		},
		{
			"buffer":0,
			"byteLength":7680,
			"byteOffset":198624,
			"target":34963
		},
		{
			"buffer":0,
			"byteLength":8460,
			"byteOffset":206304,
			"target":34962
		},
		{
			"buffer":0,
			"byteLength":8460,
			"byteOffset":214764,
			"target":34962
		},
		{
			"buffer":0,
			"byteLength":5640,
			"byteOffset":223224,
			"target":34962
		},
		{
			"buffer":0,
			"byteLength":11280,
			"byteOffset":228864,
			"target":34962
		},
		{
			"buffer":0,
			"byteLength":8460,
			"byteOffset":240144,
			"target":34962
		},
		{
			"buffer":0,
			"byteLength":8460,
			"byteOffset":248604,
			"target":34962
		},
		{
			"buffer":0,
			"byteLength":5640,
			"byteOffset":257064,
			"target":34962
		},
		{
			"buffer":0,
			"byteLength":11280,
			"byteOffset":262704,
			"target":34962
		}
	],
	"buffers":[
		{
			"byteLength":273984,
			"uri":"carrot-30f5e30d6e21bdc7a2320106e3c7ba54.bin"
		}
	]
}
