{
	"asset":{
		"generator":"Khronos glTF Blender I/O v4.3.47",
		"version":"2.0"
	},
	"scene":0,
	"scenes":[
		{
			"name":"Scene",
			"nodes":[
				0,
				1,
				2
			]
		}
	],
	"nodes":[
		{
			"mesh":0,
			"name":"Cube",
			"rotation":[
				0.037722229957580566,
				-0.11868368834257126,
				-0.24853743612766266,
				0.9605834484100342
			],
			"scale":[
				1.1631131172180176,
				1.1631131172180176,
				1.1631131172180176
			],
			"translation":[
				0.5286214351654053,
				2,
				0
			]
		},
		{
			"mesh":1,
			"name":"Cube.001",
			"rotation":[
				0.24102814495563507,
				-0.9200459122657776,
				-0.07140892744064331,
				0.3005357086658478
			],
			"scale":[
				0.8587011694908142,
				0.8587011694908142,
				0.8587011694908142
			],
			"translation":[
				-1.429183840751648,
				1.817522644996643,
				0
			]
		},
		{
			"mesh":2,
			"name":"Cube.002",
			"rotation":[
				-0.20078948140144348,
				0.7889184951782227,
				-0.15125280618667603,
				0.5607262253761292
			],
			"translation":[
				-0.6920866370201111,
				2,
				-1.1391831636428833
			]
		}
	],
	"materials":[
		{
			"doubleSided":true,
			"name":"Material",
			"pbrMetallicRoughness":{
				"baseColorFactor":[
					0,
					0.7991040349006653,
					0.013702263124287128,
					1
				],
				"metallicFactor":0,
				"roughnessFactor":0.5
			}
		},
		{
			"doubleSided":true,
			"name":"Material.001",
			"pbrMetallicRoughness":{
				"baseColorFactor":[
					0,
					0.7991040349006653,
					0.013702263124287128,
					1
				],
				"metallicFactor":0,
				"roughnessFactor":0.5
			}
		}
	],
	"meshes":[
		{
			"name":"Cube",
			"primitives":[
				{
					"attributes":{
						"POSITION":0,
						"NORMAL":1,
						"TEXCOORD_0":2,
						"TANGENT":3
					},
					"indices":4,
					"material":0
				}
			]
		},
		{
			"name":"Cube.001",
			"primitives":[
				{
					"attributes":{
						"POSITION":5,
						"NORMAL":6,
						"TEXCOORD_0":7,
						"TANGENT":8
					},
					"indices":4,
					"material":1
				}
			]
		},
		{
			"name":"Cube.002",
			"primitives":[
				{
					"attributes":{
						"POSITION":9,
						"NORMAL":10,
						"TEXCOORD_0":11,
						"TANGENT":12
					},
					"indices":4,
					"material":0
				}
			]
		}
	],
	"accessors":[
		{
			"bufferView":0,
			"componentType":5126,
			"count":166,
			"max":[
				4.521679401397705,
				5.193142890930176,
				0.9683701992034912
			],
			"min":[
				-0.09681761264801025,
				-2.070753335952759,
				-0.9683701395988464
			],
			"type":"VEC3"
		},
		{
			"bufferView":1,
			"componentType":5126,
			"count":166,
			"type":"VEC3"
		},
		{
			"bufferView":2,
			"componentType":5126,
			"count":166,
			"type":"VEC2"
		},
		{
			"bufferView":3,
			"componentType":5126,
			"count":166,
			"type":"VEC4"
		},
		{
			"bufferView":4,
			"componentType":5123,
			"count":432,
			"type":"SCALAR"
		},
		{
			"bufferView":5,
			"componentType":5126,
			"count":166,
			"max":[
				4.521679401397705,
				5.193142890930176,
				0.9683701992034912
			],
			"min":[
				-0.09681761264801025,
				-2.070753335952759,
				-0.9683701395988464
			],
			"type":"VEC3"
		},
		{
			"bufferView":6,
			"componentType":5126,
			"count":166,
			"type":"VEC3"
		},
		{
			"bufferView":7,
			"componentType":5126,
			"count":166,
			"type":"VEC2"
		},
		{
			"bufferView":8,
			"componentType":5126,
			"count":166,
			"type":"VEC4"
		},
		{
			"bufferView":9,
			"componentType":5126,
			"count":166,
			"max":[
				4.521679401397705,
				5.193142890930176,
				0.9683701992034912
			],
			"min":[
				-0.09681761264801025,
				-2.070753335952759,
				-0.9683701395988464
			],
			"type":"VEC3"
		},
		{
			"bufferView":10,
			"componentType":5126,
			"count":166,
			"type":"VEC3"
		},
		{
			"bufferView":11,
			"componentType":5126,
			"count":166,
			"type":"VEC2"
		},
		{
			"bufferView":12,
			"componentType":5126,
			"count":166,
			"type":"VEC4"
		}
	],
	"bufferViews":[
		{
			"buffer":0,
			"byteLength":1992,
			"byteOffset":0,
			"target":34962
		},
		{
			"buffer":0,
			"byteLength":1992,
			"byteOffset":1992,
			"target":34962
		},
		{
			"buffer":0,
			"byteLength":1328,
			"byteOffset":3984,
			"target":34962
		},
		{
			"buffer":0,
			"byteLength":2656,
			"byteOffset":5312,
			"target":34962
		},
		{
			"buffer":0,
			"byteLength":864,
			"byteOffset":7968,
			"target":34963
		},
		{
			"buffer":0,
			"byteLength":1992,
			"byteOffset":8832,
			"target":34962
		},
		{
			"buffer":0,
			"byteLength":1992,
			"byteOffset":10824,
			"target":34962
		},
		{
			"buffer":0,
			"byteLength":1328,
			"byteOffset":12816,
			"target":34962
		},
		{
			"buffer":0,
			"byteLength":2656,
			"byteOffset":14144,
			"target":34962
		},
		{
			"buffer":0,
			"byteLength":1992,
			"byteOffset":16800,
			"target":34962
		},
		{
			"buffer":0,
			"byteLength":1992,
			"byteOffset":18792,
			"target":34962
		},
		{
			"buffer":0,
			"byteLength":1328,
			"byteOffset":20784,
			"target":34962
		},
		{
			"buffer":0,
			"byteLength":2656,
			"byteOffset":22112,
			"target":34962
		}
	],
	"buffers":[
		{
			"byteLength":24768,
			"uri":"carrot_p1-ce83914b1d625a45aae564a1ccb78802.bin"
		}
	]
}
