{
	"asset":{
		"generator":"Khronos glTF Blender I/O v4.3.47",
		"version":"2.0"
	},
	"scene":0,
	"scenes":[
		{
			"name":"Scene",
			"nodes":[
				0,
				1,
				2,
				3
			]
		}
	],
	"nodes":[
		{
			"mesh":0,
			"name":"Sphere",
			"scale":[
				0.7797616124153137,
				0.6436873078346252,
				0.6436873078346252
			],
			"translation":[
				1.3040400743484497,
				0,
				0
			]
		},
		{
			"mesh":1,
			"name":"Cube",
			"rotation":[
				-0.3892710208892822,
				-0.261963814496994,
				-0.057059042155742645,
				0.881242036819458
			],
			"scale":[
				0.45350703597068787,
				0.4535070061683655,
				0.4535070061683655
			],
			"translation":[
				1.3805925846099854,
				0.924469530582428,
				-0.2161729484796524
			]
		},
		{
			"mesh":2,
			"name":"Cube.001",
			"rotation":[
				-0.2615675926208496,
				0.592345118522644,
				0.29388782382011414,
				0.7030928730964661
			],
			"scale":[
				0.45350703597068787,
				0.4535070061683655,
				0.4535070061683655
			],
			"translation":[
				1.1023781299591064,
				0.9837278723716736,
				-0.009049758315086365
			]
		},
		{
			"mesh":3,
			"name":"Cube.002",
			"rotation":[
				-0.11053936183452606,
				-0.910179853439331,
				-0.3775827884674072,
				0.1295568346977234
			],
			"scale":[
				0.45350703597068787,
				0.4535070061683655,
				0.4535069763660431
			],
			"translation":[
				1.4341121912002563,
				0.9129300117492676,
				0.10809372365474701
			]
		}
	],
	"materials":[
		{
			"doubleSided":true,
			"name":"Onion",
			"pbrMetallicRoughness":{
				"baseColorFactor":[
					0.6825879216194153,
					0.8001565933227539,
					0.4406788945198059,
					1
				],
				"metallicFactor":0,
				"roughnessFactor":0.5
			}
		},
		{
			"doubleSided":true,
			"name":"Material.002",
			"pbrMetallicRoughness":{
				"baseColorFactor":[
					0.016806982457637787,
					0.35640060901641846,
					0,
					1
				],
				"metallicFactor":0,
				"roughnessFactor":0.5
			}
		},
		{
			"doubleSided":true,
			"name":"Material.001",
			"pbrMetallicRoughness":{
				"baseColorFactor":[
					0.016806982457637787,
					0.35640060901641846,
					0,
					1
				],
				"metallicFactor":0,
				"roughnessFactor":0.5
			}
		},
		{
			"doubleSided":true,
			"name":"Green",
			"pbrMetallicRoughness":{
				"baseColorFactor":[
					0.016806982457637787,
					0.35640060901641846,
					0,
					1
				],
				"metallicFactor":0,
				"roughnessFactor":0.5
			}
		}
	],
	"meshes":[
		{
			"name":"Sphere",
			"primitives":[
				{
					"attributes":{
						"POSITION":0,
						"NORMAL":1,
						"TEXCOORD_0":2,
						"TANGENT":3
					},
					"indices":4,
					"material":0
				}
			]
		},
		{
			"name":"Cube.001",
			"primitives":[
				{
					"attributes":{
						"POSITION":5,
						"NORMAL":6,
						"TEXCOORD_0":7,
						"TANGENT":8
					},
					"indices":9,
					"material":1
				}
			]
		},
		{
			"name":"Cube.003",
			"primitives":[
				{
					"attributes":{
						"POSITION":10,
						"NORMAL":11,
						"TEXCOORD_0":12,
						"TANGENT":13
					},
					"indices":9,
					"material":2
				}
			]
		},
		{
			"name":"Cube.004",
			"primitives":[
				{
					"attributes":{
						"POSITION":14,
						"NORMAL":15,
						"TEXCOORD_0":16,
						"TANGENT":17
					},
					"indices":9,
					"material":3
				}
			]
		}
	],
	"accessors":[
		{
			"bufferView":0,
			"componentType":5126,
			"count":1984,
			"max":[
				0.9999997019767761,
				1,
				0.9999993443489075
			],
			"min":[
				-0.9999990463256836,
				-1,
				-1
			],
			"type":"VEC3"
		},
		{
			"bufferView":1,
			"componentType":5126,
			"count":1984,
			"type":"VEC3"
		},
		{
			"bufferView":2,
			"componentType":5126,
			"count":1984,
			"type":"VEC2"
		},
		{
			"bufferView":3,
			"componentType":5126,
			"count":1984,
			"type":"VEC4"
		},
		{
			"bufferView":4,
			"componentType":5123,
			"count":2880,
			"type":"SCALAR"
		},
		{
			"bufferView":5,
			"componentType":5126,
			"count":125,
			"max":[
				0.33352363109588623,
				1.2605818510055542,
				0.04221711307764053
			],
			"min":[
				-0.333523690700531,
				-0.9773135185241699,
				-1.1490622758865356
			],
			"type":"VEC3"
		},
		{
			"bufferView":6,
			"componentType":5126,
			"count":125,
			"type":"VEC3"
		},
		{
			"bufferView":7,
			"componentType":5126,
			"count":125,
			"type":"VEC2"
		},
		{
			"bufferView":8,
			"componentType":5126,
			"count":125,
			"type":"VEC4"
		},
		{
			"bufferView":9,
			"componentType":5123,
			"count":336,
			"type":"SCALAR"
		},
		{
			"bufferView":10,
			"componentType":5126,
			"count":125,
			"max":[
				0.33352363109588623,
				1.2605818510055542,
				0.04221711307764053
			],
			"min":[
				-0.333523690700531,
				-0.9773135185241699,
				-1.1490622758865356
			],
			"type":"VEC3"
		},
		{
			"bufferView":11,
			"componentType":5126,
			"count":125,
			"type":"VEC3"
		},
		{
			"bufferView":12,
			"componentType":5126,
			"count":125,
			"type":"VEC2"
		},
		{
			"bufferView":13,
			"componentType":5126,
			"count":125,
			"type":"VEC4"
		},
		{
			"bufferView":14,
			"componentType":5126,
			"count":125,
			"max":[
				0.33352363109588623,
				1.2605818510055542,
				0.04221711307764053
			],
			"min":[
				-0.333523690700531,
				-0.9773135185241699,
				-1.1490622758865356
			],
			"type":"VEC3"
		},
		{
			"bufferView":15,
			"componentType":5126,
			"count":125,
			"type":"VEC3"
		},
		{
			"bufferView":16,
			"componentType":5126,
			"count":125,
			"type":"VEC2"
		},
		{
			"bufferView":17,
			"componentType":5126,
			"count":125,
			"type":"VEC4"
		}
	],
	"bufferViews":[
		{
			"buffer":0,
			"byteLength":23808,
			"byteOffset":0,
			"target":34962
		},
		{
			"buffer":0,
			"byteLength":23808,
			"byteOffset":23808,
			"target":34962
		},
		{
			"buffer":0,
			"byteLength":15872,
			"byteOffset":47616,
			"target":34962
		},
		{
			"buffer":0,
			"byteLength":31744,
			"byteOffset":63488,
			"target":34962
		},
		{
			"buffer":0,
			"byteLength":5760,
			"byteOffset":95232,
			"target":34963
		},
		{
			"buffer":0,
			"byteLength":1500,
			"byteOffset":100992,
			"target":34962
		},
		{
			"buffer":0,
			"byteLength":1500,
			"byteOffset":102492,
			"target":34962
		},
		{
			"buffer":0,
			"byteLength":1000,
			"byteOffset":103992,
			"target":34962
		},
		{
			"buffer":0,
			"byteLength":2000,
			"byteOffset":104992,
			"target":34962
		},
		{
			"buffer":0,
			"byteLength":672,
			"byteOffset":106992,
			"target":34963
		},
		{
			"buffer":0,
			"byteLength":1500,
			"byteOffset":107664,
			"target":34962
		},
		{
			"buffer":0,
			"byteLength":1500,
			"byteOffset":109164,
			"target":34962
		},
		{
			"buffer":0,
			"byteLength":1000,
			"byteOffset":110664,
			"target":34962
		},
		{
			"buffer":0,
			"byteLength":2000,
			"byteOffset":111664,
			"target":34962
		},
		{
			"buffer":0,
			"byteLength":1500,
			"byteOffset":113664,
			"target":34962
		},
		{
			"buffer":0,
			"byteLength":1500,
			"byteOffset":115164,
			"target":34962
		},
		{
			"buffer":0,
			"byteLength":1000,
			"byteOffset":116664,
			"target":34962
		},
		{
			"buffer":0,
			"byteLength":2000,
			"byteOffset":117664,
			"target":34962
		}
	],
	"buffers":[
		{
			"byteLength":119664,
			"uri":"onion-e7a7b5e6dca58cb21699c4c2fbe74c3a.bin"
		}
	]
}
